Hunky Dory 2011 DVDRiP XviD-UNVEiL

IMDB: http://www.imdb.com/title/tt1727300

Video
ID : 0
Format : MPEG-4 Visual
Format profile : Advanced SimpleL5
Format settings, BVOP : 2
Format settings, QPel : No
Format settings, GMC : No warppoints
Format settings, Matrix : Default (H.263
Codec ID : XVID
Codec ID/Hint : XviD
Duration : 1h 45mn
Bit rate : 1 397 Kbps
Width : 640 pixels
Height : 272 pixels
Display aspect ratio : 2.35:1
Frame rate : 25.000 fps
Color space : YUV
Chroma subsampling : 4:2:0
Bit depth : 8 bits
Scan type : Progressive
Compression mode : Lossy
Bits/(PixelFrame) : 0.321
Stream size : 1.03 GiB (75
Writing library : XviD 1.2.1 (UTC 2008-12-04

Audio
ID : 1
Format : AC-3
Format/Info : Audio Coding 3
Mode extension : CM (complete main
Codec ID : 2000
Duration : 1h 45mn
Bit rate mode : Constant
Bit rate : 448 Kbps
Channel(s) : 6 channels
Channel positions : Front: L C R, Side: L R, LFE
Sampling rate : 48.0 KHz
Bit depth : 16 bits
Compression mode : Lossy
Delay relative to video : 6ms
Stream size : 338 MiB (24
Alignment : Split across interleaves
Interleave, duration : 40 ms (1.00 video frame
Interleave, preload duration : 500 ms


Poster:

 
http://i.imgur.com/OKGGu.jpg


Screenshots:

 
http://i.imgur.com/Qo30q.jpg


ENJOY!